<?xml version="1.0" encoding="utf-8" ?>
<svg baseProfile="tiny" height="100%" version="1.2" width="100%" xmlns="http://www.w3.org/2000/svg" xmlns:ev="http://www.w3.org/2001/xml-events" xmlns:xlink="http://www.w3.org/1999/xlink"><defs /><path d="M 860,632 Z" fill="black" stroke="none" /><path d="M 850,631 L 849,632 Z" fill="black" stroke="none" /><path d="M 843,631 Z" fill="black" stroke="none" /><path d="M 856,624 L 855,625 Z" fill="black" stroke="none" /><path d="M 842,624 L 840,626 L 839,626 L 837,628 L 836,628 L 835,629 L 834,629 L 834,632 L 840,632 L 840,628 L 841,627 L 841,625 Z" fill="black" stroke="none" /><path d="M 1029,623 L 1028,624 L 1030,624 L 1030,623 Z" fill="black" stroke="none" /><path d="M 1020,623 L 1021,623 Z" fill="black" stroke="none" /><path d="M 1025,622 L 1026,623 L 1026,622 Z" fill="black" stroke="none" /><path d="M 1004,622 Z" fill="black" stroke="none" /><path d="M 1066,621 L 1066,622 Z" fill="black" stroke="none" /><path d="M 1020,621 Z" fill="black" stroke="none" /><path d="M 1017,618 L 1018,618 Z" fill="black" stroke="none" /><path d="M 1017,616 Z" fill="black" stroke="none" /><path d="M 1003,616 Z" fill="black" stroke="none" /><path d="M 1022,614 L 1021,615 L 1020,615 L 1020,616 L 1021,616 L 1023,614 Z" fill="black" stroke="none" /><path d="M 1003,614 Z" fill="black" stroke="none" /><path d="M 1051,612 Z" fill="black" stroke="none" /><path d="M 1023,610 Z" fill="black" stroke="none" /><path d="M 1003,610 L 1003,612 Z" fill="black" stroke="none" /><path d="M 1017,607 Z" fill="black" stroke="none" /><path d="M 1014,606 L 1013,607 L 1014,607 Z" fill="black" stroke="none" /><path d="M 1020,605 L 1019,606 L 1019,609 L 1017,611 L 1015,611 L 1014,612 L 1013,612 L 1012,613 L 1013,612 L 1014,612 L 1015,611 L 1016,611 L 1017,612 L 1018,612 L 1019,611 L 1018,610 L 1019,609 L 1019,608 L 1020,607 L 1020,606 L 1021,605 L 1022,606 L 1021,605 Z" fill="black" stroke="none" /><path d="M 876,603 L 875,604 L 875,606 L 876,606 Z" fill="black" stroke="none" /><path d="M 884,602 L 884,604 L 882,606 L 881,606 L 880,605 L 878,607 L 879,608 L 878,609 L 879,610 L 878,611 L 878,612 L 877,613 L 876,612 L 876,611 L 875,610 L 875,608 L 874,608 L 873,607 L 873,606 L 871,604 L 868,607 L 868,608 L 872,608 L 873,609 L 874,609 L 875,610 L 875,611 L 870,616 L 871,616 L 872,615 L 874,615 L 875,616 L 875,618 L 873,620 L 869,620 L 868,619 L 868,618 L 864,618 L 863,619 L 863,620 L 864,620 L 866,622 L 866,625 L 865,626 L 866,627 L 865,628 L 864,628 L 864,629 L 865,630 L 864,631 L 863,631 L 862,630 L 863,631 L 863,632 L 864,632 L 864,631 L 865,630 L 866,630 L 867,631 L 867,632 L 876,632 L 877,631 L 878,631 L 879,632 L 894,632 L 896,630 L 897,631 L 897,632 L 899,632 L 898,631 L 899,630 L 900,630 L 901,631 L 901,632 L 902,631 L 903,632 L 905,632 L 905,628 L 906,627 L 905,626 L 905,623 L 906,622 L 905,621 L 900,621 L 899,620 L 900,619 L 900,618 L 901,617 L 902,617 L 902,616 L 903,615 L 904,615 L 904,609 L 903,608 L 903,605 L 901,603 L 900,603 L 899,602 L 894,602 L 893,603 L 892,602 L 890,602 L 889,603 L 888,602 L 887,603 L 886,602 Z" fill="black" stroke="none" /><path d="M 845,600 L 845,602 L 844,603 L 844,606 L 844,603 L 845,602 Z" fill="black" stroke="none" /><path d="M 861,599 L 860,600 L 860,604 L 863,601 L 863,600 L 862,599 Z" fill="black" stroke="none" /><path d="M 879,595 L 879,597 L 880,596 Z" fill="black" stroke="none" /><path d="M 1026,594 Z" fill="black" stroke="none" /><path d="M 1053,593 L 1054,593 L 1055,594 L 1056,593 L 1055,594 L 1054,593 Z" fill="black" stroke="none" /><path d="M 1031,593 Z" fill="black" stroke="none" /><path d="M 1044,592 L 1045,592 Z" fill="black" stroke="none" /><path d="M 1028,592 L 1029,592 Z" fill="black" stroke="none" /><path d="M 862,592 L 861,593 L 860,593 L 857,596 L 857,597 L 856,598 L 856,602 L 857,603 L 857,604 L 857,600 L 856,599 L 857,598 L 857,597 L 858,596 L 858,595 L 859,594 L 861,594 L 862,595 L 861,594 L 862,593 L 863,593 L 864,592 L 865,593 L 867,593 L 868,594 L 869,594 L 868,593 L 867,593 L 866,592 Z" fill="black" stroke="none" /><path d="M 1005,590 L 1006,591 L 1006,592 L 1007,593 L 1006,594 L 1006,596 L 1007,595 L 1008,595 L 1007,595 L 1006,594 L 1007,593 L 1008,593 L 1008,592 L 1006,590 Z" fill="black" stroke="none" /><path d="M 1022,587 Z" fill="black" stroke="none" /><path d="M 1007,587 L 1007,588 Z" fill="black" stroke="none" /><path d="M 844,587 L 844,591 L 845,591 L 844,590 L 845,589 L 845,587 Z" fill="black" stroke="none" /><path d="M 885,582 L 883,584 L 883,585 L 885,583 L 886,584 L 886,585 L 887,586 L 889,586 L 890,585 L 890,584 L 891,583 L 892,583 L 893,584 L 893,585 L 894,585 L 894,584 L 893,583 L 893,582 L 892,583 L 891,582 L 887,582 L 886,583 Z" fill="black" stroke="none" /><path d="M 858,582 L 857,583 L 855,583 L 853,585 L 856,585 L 858,583 L 859,584 L 859,586 L 862,586 L 863,585 L 863,584 L 864,583 L 866,585 L 863,582 L 862,583 L 861,582 L 860,582 L 859,583 Z" fill="black" stroke="none" /><path d="M 885,576 L 884,577 L 883,577 L 883,578 L 884,578 L 885,577 L 889,577 L 890,576 L 891,576 Z" fill="black" stroke="none" /><path d="M 856,576 L 855,577 L 861,577 L 862,578 L 867,578 L 866,578 L 865,577 L 864,577 L 863,576 L 858,576 L 857,577 Z" fill="black" stroke="none" /><path d="M 1018,574 L 1016,576 L 1015,576 L 1013,578 L 1013,579 L 1014,580 L 1014,583 L 1015,584 L 1015,586 L 1018,589 L 1018,591 L 1018,590 L 1019,589 L 1019,587 L 1021,585 L 1019,585 L 1018,584 L 1016,586 L 1015,585 L 1015,583 L 1016,582 L 1016,581 L 1015,580 L 1016,579 L 1016,578 L 1017,577 L 1018,577 Z" fill="black" stroke="none" /><path d="M 1010,574 Z" fill="black" stroke="none" /><path d="M 1013,572 L 1012,573 L 1013,574 L 1012,573 Z" fill="black" stroke="none" /><path d="M 1010,572 Z" fill="black" stroke="none" /><path d="M 1022,571 Z" fill="black" stroke="none" /><path d="M 1007,569 L 1008,569 Z" fill="black" stroke="none" /><path d="M 1019,568 L 1020,568 Z" fill="black" stroke="none" /><path d="M 1027,566 L 1024,569 L 1026,569 L 1028,567 L 1028,566 Z" fill="black" stroke="none" /><path d="M 1007,566 Z" fill="black" stroke="none" /><path d="M 1012,564 L 1010,566 L 1012,568 L 1010,566 Z" fill="black" stroke="none" /><path d="M 889,561 L 890,562 L 890,563 L 890,562 Z" fill="black" stroke="none" /><path d="M 911,550 L 911,551 Z" fill="black" stroke="none" /><path d="M 0,0 L 0,632 L 692,632 L 692,629 L 693,628 L 694,629 L 694,632 L 832,632 L 832,553 L 833,552 L 833,551 L 835,549 L 836,549 L 837,548 L 847,548 L 849,550 L 848,551 L 847,551 L 847,553 L 845,555 L 845,556 L 844,557 L 844,558 L 843,559 L 843,562 L 842,563 L 842,567 L 841,568 L 841,569 L 842,570 L 842,572 L 843,573 L 843,574 L 842,575 L 843,576 L 843,579 L 844,580 L 844,583 L 845,584 L 845,585 L 845,577 L 846,576 L 846,574 L 848,572 L 848,571 L 851,568 L 851,567 L 853,565 L 854,565 L 856,563 L 856,562 L 857,561 L 858,561 L 861,558 L 862,558 L 863,557 L 864,557 L 865,556 L 866,557 L 867,557 L 867,556 L 868,555 L 869,556 L 870,555 L 871,556 L 872,556 L 873,555 L 875,555 L 876,554 L 877,554 L 876,553 L 876,552 L 874,554 L 873,553 L 873,552 L 872,551 L 873,550 L 873,549 L 874,548 L 876,548 L 879,551 L 879,552 L 880,552 L 881,553 L 882,552 L 883,553 L 883,554 L 885,554 L 886,555 L 887,555 L 889,557 L 888,558 L 887,558 L 886,557 L 887,558 L 888,558 L 889,557 L 891,559 L 891,560 L 893,562 L 892,563 L 894,565 L 893,566 L 894,567 L 895,567 L 898,570 L 897,571 L 898,571 L 902,575 L 902,576 L 904,578 L 904,583 L 905,582 L 906,582 L 906,581 L 905,580 L 905,579 L 906,578 L 909,578 L 909,577 L 908,576 L 908,571 L 907,570 L 907,562 L 906,562 L 905,561 L 906,560 L 906,558 L 905,557 L 905,555 L 903,553 L 903,552 L 902,551 L 902,550 L 901,550 L 900,549 L 901,548 L 912,548 L 913,549 L 914,549 L 916,551 L 916,552 L 917,553 L 917,628 L 916,629 L 913,629 L 913,632 L 1001,632 L 1002,631 L 1003,632 L 1007,632 L 1007,631 L 1009,629 L 1010,629 L 1008,629 L 1007,630 L 1002,630 L 1001,629 L 1002,628 L 1005,628 L 1006,627 L 1005,626 L 1005,625 L 999,625 L 998,624 L 998,623 L 999,622 L 1000,623 L 1001,623 L 1002,622 L 1002,620 L 1001,619 L 1001,614 L 999,614 L 998,613 L 998,558 L 999,557 L 1001,557 L 1002,556 L 1003,556 L 1005,554 L 1006,554 L 1007,553 L 1010,553 L 1011,552 L 1017,552 L 1018,551 L 1019,551 L 1020,550 L 1021,550 L 1022,551 L 1024,549 L 1025,549 L 1026,548 L 1033,548 L 1034,549 L 1033,550 L 1033,551 L 1032,552 L 1032,553 L 1031,554 L 1030,554 L 1029,555 L 1028,555 L 1027,556 L 1026,556 L 1026,557 L 1028,555 L 1029,556 L 1030,555 L 1031,555 L 1032,554 L 1032,552 L 1033,551 L 1035,553 L 1034,554 L 1035,554 L 1036,555 L 1036,556 L 1035,557 L 1034,557 L 1033,558 L 1032,558 L 1031,557 L 1030,558 L 1029,558 L 1028,559 L 1029,560 L 1028,561 L 1028,562 L 1028,561 L 1030,559 L 1033,559 L 1034,560 L 1034,561 L 1031,564 L 1030,564 L 1031,564 L 1033,562 L 1034,562 L 1035,561 L 1036,561 L 1037,560 L 1039,560 L 1040,561 L 1039,562 L 1038,562 L 1038,564 L 1037,565 L 1037,566 L 1035,568 L 1034,568 L 1033,569 L 1032,569 L 1032,570 L 1031,571 L 1030,571 L 1028,573 L 1027,573 L 1026,574 L 1025,574 L 1024,575 L 1026,575 L 1028,573 L 1029,573 L 1030,572 L 1031,573 L 1031,575 L 1032,576 L 1032,578 L 1031,579 L 1031,582 L 1030,583 L 1029,583 L 1028,582 L 1028,581 L 1029,580 L 1029,579 L 1027,579 L 1026,580 L 1025,580 L 1022,583 L 1024,585 L 1024,586 L 1028,586 L 1029,585 L 1031,585 L 1032,586 L 1031,587 L 1031,588 L 1030,589 L 1029,589 L 1030,589 L 1031,590 L 1031,591 L 1032,591 L 1033,590 L 1036,590 L 1037,591 L 1037,592 L 1038,593 L 1039,592 L 1040,593 L 1040,594 L 1039,595 L 1038,595 L 1038,596 L 1037,597 L 1037,598 L 1036,599 L 1035,599 L 1034,600 L 1033,600 L 1031,602 L 1030,602 L 1029,603 L 1030,604 L 1028,606 L 1029,606 L 1030,607 L 1029,608 L 1029,609 L 1032,609 L 1033,610 L 1033,612 L 1032,613 L 1032,614 L 1031,615 L 1030,615 L 1030,616 L 1031,617 L 1030,618 L 1030,619 L 1029,620 L 1028,619 L 1028,621 L 1029,621 L 1029,620 L 1030,619 L 1032,621 L 1034,619 L 1035,620 L 1035,621 L 1036,622 L 1036,623 L 1037,622 L 1038,623 L 1038,624 L 1037,625 L 1036,625 L 1036,626 L 1035,627 L 1036,628 L 1035,629 L 1035,631 L 1034,632 L 1033,631 L 1033,632 L 1038,632 L 1038,631 L 1039,630 L 1039,629 L 1040,628 L 1041,628 L 1043,630 L 1043,631 L 1044,632 L 1045,632 L 1045,627 L 1044,626 L 1044,625 L 1042,625 L 1041,624 L 1044,621 L 1046,621 L 1047,620 L 1047,619 L 1048,618 L 1050,620 L 1051,620 L 1053,622 L 1053,623 L 1054,623 L 1055,624 L 1055,622 L 1052,619 L 1052,617 L 1050,617 L 1049,618 L 1048,617 L 1047,617 L 1046,616 L 1046,614 L 1045,613 L 1046,612 L 1047,612 L 1048,611 L 1048,610 L 1051,607 L 1052,608 L 1052,610 L 1052,606 L 1054,604 L 1054,602 L 1055,601 L 1055,599 L 1054,598 L 1053,599 L 1050,599 L 1048,597 L 1048,596 L 1047,595 L 1046,595 L 1045,594 L 1041,594 L 1040,593 L 1040,592 L 1037,589 L 1038,588 L 1040,588 L 1041,589 L 1042,589 L 1043,588 L 1044,588 L 1045,587 L 1046,588 L 1048,588 L 1049,589 L 1049,590 L 1050,589 L 1050,588 L 1052,586 L 1053,586 L 1054,587 L 1056,587 L 1057,586 L 1058,587 L 1059,586 L 1060,587 L 1060,588 L 1059,589 L 1059,590 L 1058,591 L 1057,591 L 1058,592 L 1058,594 L 1059,595 L 1058,596 L 1059,596 L 1061,598 L 1064,595 L 1064,594 L 1065,593 L 1066,594 L 1067,594 L 1068,595 L 1068,596 L 1069,595 L 1070,596 L 1071,595 L 1072,596 L 1072,597 L 1071,598 L 1069,598 L 1071,598 L 1072,599 L 1072,604 L 1071,605 L 1071,606 L 1072,607 L 1071,608 L 1071,610 L 1072,611 L 1072,615 L 1071,616 L 1069,616 L 1068,615 L 1068,614 L 1069,613 L 1069,611 L 1068,610 L 1068,609 L 1066,607 L 1066,606 L 1062,606 L 1060,608 L 1059,608 L 1059,609 L 1058,610 L 1058,614 L 1057,615 L 1057,616 L 1057,615 L 1058,614 L 1064,614 L 1066,616 L 1067,615 L 1068,615 L 1069,616 L 1071,616 L 1072,617 L 1072,621 L 1071,622 L 1070,622 L 1071,622 L 1072,623 L 1071,624 L 1070,624 L 1069,625 L 1068,625 L 1068,628 L 1070,628 L 1071,629 L 1069,631 L 1068,630 L 1066,630 L 1065,629 L 1065,628 L 1064,627 L 1064,620 L 1065,619 L 1065,618 L 1065,619 L 1064,620 L 1063,620 L 1062,621 L 1060,619 L 1060,620 L 1059,621 L 1059,624 L 1059,622 L 1060,621 L 1062,621 L 1064,623 L 1064,627 L 1063,628 L 1063,629 L 1064,630 L 1064,632 L 1068,632 L 1069,631 L 1070,631 L 1071,632 L 1341,632 L 1341,0 Z" fill="black" stroke="none" /></svg>