<?xml version="1.0" encoding="UTF-8"?>
<svg version="1.1" xmlns="http://www.w3.org/2000/svg" width="500" height="500">
<path d="M0 0 C8.26766641 -0.06992433 16.53520649 -0.12302434 24.80309677 -0.15543652 C28.64341528 -0.17100327 32.48352949 -0.192074 36.32373047 -0.22631836 C40.03905456 -0.25923673 43.75418382 -0.27692036 47.46964264 -0.28463173 C48.87762768 -0.29011765 50.28560369 -0.30082777 51.69350433 -0.31719017 C65.27783362 -0.46859278 79.79270585 1.05443134 90 11 C99.43373903 22.42974172 101.25179853 33.57347549 100 48 C98.24033089 58.47616958 92.4157579 69.41731579 83.67578125 75.66015625 C78.64092871 78.79826495 73.62129961 81.12623346 68 83 C68.42667969 83.36867188 68.85335937 83.73734375 69.29296875 84.1171875 C77.19876973 91.45246676 85.14995842 101.29991684 90 111 C97.36736595 94.91328636 104.70589536 78.81272093 111.8414917 62.62158203 C112.44073792 61.26342479 113.04197295 59.90614306 113.64532471 58.54980469 C116.92833676 51.16228137 119.95730739 43.84060366 122 36 C123.81274414 36.13598633 123.81274414 36.13598633 126 37 C127.53295898 39.4831543 127.53295898 39.4831543 128.99609375 42.82421875 C129.26545242 43.42840134 129.5348111 44.03258392 129.81233215 44.65507507 C130.70174805 46.65988529 131.56953571 48.67332027 132.4375 50.6875 C133.06159632 52.10617289 133.68694135 53.52429705 134.31347656 54.94189453 C135.92177735 58.59150608 137.51184355 62.24872759 139.09515381 65.90924072 C139.93790136 67.85651339 140.78377067 69.80238401 141.63134766 71.74755859 C143.97684785 77.1319016 146.31372371 82.51986074 148.63897705 87.91297913 C154.87160805 102.36615608 161.21229599 116.7720132 167.56155396 131.17425537 C169.8548951 136.38151958 172.1295366 141.59646185 174.38871765 146.81863403 C175.82625437 150.13717228 177.27339925 153.4514681 178.72225952 156.76507568 C179.3988653 158.31871541 180.07120399 159.87422156 180.73892212 161.43170166 C186.00879952 174.82118083 186.00879952 174.82118083 196.5625 183.9375 C199.6386921 184.88832301 201.82090932 185.28900824 205 185 C205.33 186.32 205.66 187.64 206 189 C189.83 189 173.66 189 157 189 C157 188.01 157 187.02 157 186 C158.093125 185.773125 159.18625 185.54625 160.3125 185.3125 C164.03928444 184.31933111 164.03928444 184.31933111 166 181.75 C168.33147177 175.33845263 164.44787969 168.66482615 162.01953125 162.70703125 C161.61480591 161.70014755 161.21008057 160.69326385 160.79309082 159.65586853 C159.47184254 156.37245082 158.14221344 153.09249751 156.8125 149.8125 C155.8974319 147.54288452 154.98296637 145.27302601 154.0690918 143.00292969 C152.23881048 138.45807452 150.40568163 133.91438482 148.5703125 129.37158203 C146.32625003 123.81379424 144.09545543 118.25085085 141.875 112.68359375 C141.4144799 111.52895126 141.4144799 111.52895126 140.94465637 110.35098267 C140.35241857 108.86576671 139.76023831 107.3805278 139.16812134 105.89526367 C133.85213239 92.56670645 128.46871961 79.26670869 123 66 C120.63518838 68.13988919 119.36808055 70.00212699 118.16235352 72.94555664 C117.83513809 73.73390396 117.50792267 74.52225128 117.17079163 75.33448792 C116.82696945 76.18445847 116.48314728 77.03442902 116.12890625 77.91015625 C115.76530502 78.79223251 115.4017038 79.67430878 115.02708435 80.58311462 C113.86516369 83.40673741 112.71376677 86.23451897 111.5625 89.0625 C110.79169362 90.93973166 110.02021639 92.81668801 109.24804688 94.69335938 C106.60866103 101.11567534 106.60866103 101.11567534 104.00076294 107.55081177 C103.29647339 109.27443442 102.56944759 110.98885459 101.82614136 112.6960144 C101.45030914 113.57677643 101.07447693 114.45753845 100.68725586 115.36499023 C100.34053329 116.15791977 99.99381073 116.9508493 99.63658142 117.76780701 C98.90156642 120.34516049 99.02086348 121.52699338 100 124 C101.65846258 126.06016632 103.31025958 127.96399164 105.125 129.875 C105.87595947 130.67454102 105.87595947 130.67454102 106.64208984 131.49023438 C115.00777081 140.30643734 122.48742482 146.08999453 135 147 C135 147.99 135 148.98 135 150 C117.13029586 150.78196497 105.95536013 149.2427187 91 139 C89.01633743 143.72889284 87.0411162 148.461191 85.07348633 153.19677734 C84.40357101 154.80580361 83.73139708 156.4138915 83.05688477 158.02099609 C82.08528554 160.33705919 81.12197719 162.65642449 80.16015625 164.9765625 C79.85908463 165.68930328 79.558013 166.40204407 79.24781799 167.13638306 C76.19282348 174.28634667 76.19282348 174.28634667 77 181.75 C79.66622037 184.74949792 82.13799642 185.19845209 86 186 C86 186.99 86 187.98 86 189 C71.48 189 56.96 189 42 189 C42 188.01 42 187.02 42 186 C42.58007812 185.90203125 43.16015625 185.8040625 43.7578125 185.703125 C51.90759426 184.14310077 57.15934495 180.84677605 62 174 C63.63069096 171.03431646 64.99748899 167.97346505 66.35546875 164.875 C66.74317947 164.00987793 67.1308902 163.14475586 67.53034973 162.25341797 C68.34397612 160.43331489 69.15304189 158.61116693 69.95776367 156.78710938 C71.18543452 154.00468127 72.4263629 151.22848348 73.66992188 148.453125 C74.46171482 146.67742974 75.25275611 144.90139908 76.04296875 143.125 C76.59454903 141.8872583 76.59454903 141.8872583 77.15727234 140.62451172 C78.12639754 138.42476643 79.06940408 136.21626838 80 134 C80.46204834 132.91178955 80.92409668 131.8235791 81.40014648 130.70239258 C82.25317732 128.03843579 82.25317732 128.03843579 81.13232422 125.75268555 C80.6117041 125.0544165 80.09108398 124.35614746 79.5546875 123.63671875 C78.97799316 122.84048096 78.40129883 122.04424316 77.80712891 121.22387695 C77.16952637 120.38687256 76.53192383 119.54986816 75.875 118.6875 C74.5674357 116.90384566 73.26014883 115.11998792 71.953125 113.3359375 C71.28861328 112.44358398 70.62410156 111.55123047 69.93945312 110.63183594 C67.60110824 107.45870429 65.36029152 104.22547756 63.1237793 100.98022461 C52.79127433 85.68578603 52.79127433 85.68578603 37 77 C37.495 75.515 37.495 75.515 38 74 C39.175625 74.04125 40.35125 74.0825 41.5625 74.125 C53.1901084 74.06997977 65.03843855 73.16897381 74.05859375 65.17578125 C80.61496274 58.23775253 82.55834422 51.08575497 82.4375 41.6875 C82.42505249 40.43682739 82.42505249 40.43682739 82.41235352 39.16088867 C82.14630137 29.41732056 79.62564266 22.20423431 73.26953125 14.75390625 C64.94754872 8.32263232 55.99903666 8.34876637 45.9375 8.25 C44.48499126 8.22178965 43.03251492 8.19185529 41.58007812 8.16015625 C38.05353724 8.08689589 34.52713013 8.03695665 31 8 C31.06057801 24.56835243 31.13810853 41.13652586 31.23571491 57.70469761 C31.28064377 65.39792573 31.32006509 73.09110786 31.34643555 80.78442383 C31.36943926 87.49142386 31.40286368 94.198278 31.44870156 100.90516227 C31.47260196 104.45506722 31.4913515 108.00482796 31.49761391 111.55481148 C31.50480749 115.52180919 31.53527026 119.48844613 31.56762695 123.45532227 C31.56547432 125.21291367 31.56547432 125.21291367 31.5632782 127.00601196 C31.63348219 133.09032939 31.96254796 137.66687314 35 143 C38.69749897 146.08124914 42.28088181 146.53734135 47 147 C47.33 147.99 47.66 148.98 48 150 C32.16 150 16.32 150 0 150 C0 149.01 0 148.02 0 147 C0.68707031 146.86722656 1.37414062 146.73445312 2.08203125 146.59765625 C3.43361328 146.33275391 3.43361328 146.33275391 4.8125 146.0625 C5.70582031 145.88847656 6.59914062 145.71445312 7.51953125 145.53515625 C10.11397171 145.02258847 10.11397171 145.02258847 13 144 C16.61927442 137.62155347 16.42303857 130.25654747 16.37231445 123.1496582 C16.37596512 121.99730682 16.37961578 120.84495544 16.38337708 119.65768433 C16.3914429 115.87189722 16.37790745 112.0865434 16.36328125 108.30078125 C16.36276228 105.66000875 16.36328142 103.01923586 16.36479187 100.37846375 C16.36567203 94.85504031 16.35464976 89.33174027 16.33618164 83.80834961 C16.31498675 77.43314866 16.31151248 71.05812788 16.3177436 64.68289882 C16.32344684 58.53139735 16.31767632 52.37996913 16.30657005 46.22847557 C16.3027229 43.6181889 16.30156783 41.00789682 16.3031559 38.3976078 C16.30352681 34.75235302 16.29089962 31.10737187 16.2746582 27.4621582 C16.27713562 26.38513138 16.27961304 25.30810455 16.28216553 24.19844055 C16.23596153 17.69953766 15.96196063 12.6159475 11.9375 7.25 C8.14204638 4.34284404 4.66061562 3.68030773 0 3 C0 2.01 0 1.02 0 0 Z " fill="#FCFCFC" transform="translate(147,119)"/>
<path d="M0 0 C1.81274414 0.13598633 1.81274414 0.13598633 4 1 C5.53295898 3.4831543 5.53295898 3.4831543 6.99609375 6.82421875 C7.26545242 7.42840134 7.5348111 8.03258392 7.81233215 8.65507507 C8.70174805 10.65988529 9.56953571 12.67332027 10.4375 14.6875 C11.06159632 16.10617289 11.68694135 17.52429705 12.31347656 18.94189453 C13.92177735 22.59150608 15.51184355 26.24872759 17.09515381 29.90924072 C17.93790136 31.85651339 18.78377067 33.80238401 19.63134766 35.74755859 C21.97684785 41.1319016 24.31372371 46.51986074 26.63897705 51.91297913 C32.87160805 66.36615608 39.21229599 80.7720132 45.56155396 95.17425537 C47.8548951 100.38151958 50.1295366 105.59646185 52.38871765 110.81863403 C53.82625437 114.13717228 55.27339925 117.4514681 56.72225952 120.76507568 C57.3988653 122.31871541 58.07120399 123.87422156 58.73892212 125.43170166 C64.00879952 138.82118083 64.00879952 138.82118083 74.5625 147.9375 C77.6386921 148.88832301 79.82090932 149.28900824 83 149 C83.33 150.32 83.66 151.64 84 153 C67.83 153 51.66 153 35 153 C35 152.01 35 151.02 35 150 C36.093125 149.773125 37.18625 149.54625 38.3125 149.3125 C42.03928444 148.31933111 42.03928444 148.31933111 44 145.75 C46.33147177 139.33845263 42.44787969 132.66482615 40.01953125 126.70703125 C39.61480591 125.70014755 39.21008057 124.69326385 38.79309082 123.65586853 C37.47184254 120.37245082 36.14221344 117.09249751 34.8125 113.8125 C33.8974319 111.54288452 32.98296637 109.27302601 32.0690918 107.00292969 C30.23881048 102.45807452 28.40568163 97.91438482 26.5703125 93.37158203 C24.32625003 87.81379424 22.09545543 82.25085085 19.875 76.68359375 C19.5679866 75.91383209 19.26097321 75.14407043 18.94465637 74.35098267 C18.35241857 72.86576671 17.76023831 71.3805278 17.16812134 69.89526367 C11.85213239 56.56670645 6.46871961 43.26670869 1 30 C-1.36481162 32.13988919 -2.63191945 34.00212699 -3.83764648 36.94555664 C-4.16486191 37.73390396 -4.49207733 38.52225128 -4.82920837 39.33448792 C-5.17303055 40.18445847 -5.51685272 41.03442902 -5.87109375 41.91015625 C-6.23469498 42.79223251 -6.5982962 43.67430878 -6.97291565 44.58311462 C-8.13483631 47.40673741 -9.28623323 50.23451897 -10.4375 53.0625 C-11.20830638 54.93973166 -11.97978361 56.81668801 -12.75195312 58.69335938 C-15.39133897 65.11567534 -15.39133897 65.11567534 -17.99923706 71.55081177 C-18.70352661 73.27443442 -19.43055241 74.98885459 -20.17385864 76.6960144 C-20.54969086 77.57677643 -20.92552307 78.45753845 -21.31274414 79.36499023 C-21.65946671 80.15791977 -22.00618927 80.9508493 -22.36341858 81.76780701 C-23.09843358 84.34516049 -22.97913652 85.52699338 -22 88 C-20.34153742 90.06016632 -18.68974042 91.96399164 -16.875 93.875 C-16.37436035 94.40802734 -15.8737207 94.94105469 -15.35791016 95.49023438 C-6.99222919 104.30643734 0.48742482 110.08999453 13 111 C13 111.99 13 112.98 13 114 C-4.86970414 114.78196497 -16.04463987 113.2427187 -31 103 C-32.98366257 107.72889284 -34.9588838 112.461191 -36.92651367 117.19677734 C-37.59642899 118.80580361 -38.26860292 120.4138915 -38.94311523 122.02099609 C-39.91471446 124.33705919 -40.87802281 126.65642449 -41.83984375 128.9765625 C-42.14091537 129.68930328 -42.441987 130.40204407 -42.75218201 131.13638306 C-45.80717652 138.28634667 -45.80717652 138.28634667 -45 145.75 C-42.33377963 148.74949792 -39.86200358 149.19845209 -36 150 C-36 150.99 -36 151.98 -36 153 C-50.52 153 -65.04 153 -80 153 C-80 152.01 -80 151.02 -80 150 C-79.41992188 149.90203125 -78.83984375 149.8040625 -78.2421875 149.703125 C-70.0849413 148.14167193 -64.85621572 144.84241494 -60 138 C-58.45093014 135.18542765 -57.16674664 132.2787448 -55.890625 129.33203125 C-55.51951599 128.49774094 -55.14840698 127.66345062 -54.76605225 126.80387878 C-53.58486197 124.14403379 -52.41687939 121.47864994 -51.25 118.8125 C-49.71736005 115.33814904 -48.17933957 111.86619539 -46.640625 108.39453125 C-46.07145355 107.10618378 -46.07145355 107.10618378 -45.49078369 105.79180908 C-42.44905717 98.93428853 -39.27263451 92.14668779 -36.01519775 85.38911438 C-33.75936129 80.69130523 -31.69743667 75.95936949 -29.75 71.125 C-29.44707031 70.37420166 -29.14414063 69.62340332 -28.83203125 68.84985352 C-28.45111328 67.90517212 -28.45111328 67.90517212 -28.0625 66.94140625 C-25.44864818 60.57951589 -22.5818356 54.32943753 -19.75 48.0625 C-15.34042179 38.29020624 -11.00725703 28.49198816 -6.8125 18.625 C-6.35520508 17.55644775 -5.89791016 16.48789551 -5.42675781 15.38696289 C-3.28173464 10.30907387 -1.34826524 5.34786773 0 0 Z " fill="#AA1EEC" transform="translate(269,155)"/>
<path d="M0 0 C1.5625 1.8125 1.5625 1.8125 3 4 C2.67 4.99 2.34 5.98 2 7 C1.01 7.33 0.02 7.66 -1 8 C-0.505 9.98 -0.505 9.98 0 12 C-0.66 12 -1.32 12 -2 12 C-1.505 12.99 -1.505 12.99 -1 14 C-0.67087978 18.52470493 -1.37664437 21.57806606 -3.22265625 25.6953125 C-3.67833984 26.74074219 -4.13402344 27.78617188 -4.60351562 28.86328125 C-5.5797351 31.04572639 -6.55630012 33.22801699 -7.53320312 35.41015625 C-7.98759766 36.45300781 -8.44199219 37.49585938 -8.91015625 38.5703125 C-9.33433838 39.51664551 -9.75852051 40.46297852 -10.19555664 41.43798828 C-11.07021822 44.22363276 -11.1178663 45.34060279 -10 48 C-8.34153742 50.06016632 -6.68974042 51.96399164 -4.875 53.875 C-4.12404053 54.67454102 -4.12404053 54.67454102 -3.35791016 55.49023438 C5.00777081 64.30643734 12.48742482 70.08999453 25 71 C25 71.99 25 72.98 25 74 C7.13029586 74.78196497 -4.04463987 73.2427187 -19 63 C-20.98366257 67.72889284 -22.9588838 72.461191 -24.92651367 77.19677734 C-25.59642899 78.80580361 -26.26860292 80.4138915 -26.94311523 82.02099609 C-27.91471446 84.33705919 -28.87802281 86.65642449 -29.83984375 88.9765625 C-30.14091537 89.68930328 -30.441987 90.40204407 -30.75218201 91.13638306 C-33.80717652 98.28634667 -33.80717652 98.28634667 -33 105.75 C-30.33377963 108.74949792 -27.86200358 109.19845209 -24 110 C-24 110.99 -24 111.98 -24 113 C-38.52 113 -53.04 113 -68 113 C-68 112.01 -68 111.02 -68 110 C-67.41992188 109.90203125 -66.83984375 109.8040625 -66.2421875 109.703125 C-58.0849413 108.14167193 -52.85621572 104.84241494 -48 98 C-46.45093014 95.18542765 -45.16674664 92.2787448 -43.890625 89.33203125 C-43.33396149 88.08059578 -43.33396149 88.08059578 -42.76605225 86.80387878 C-41.58486197 84.14403379 -40.41687939 81.47864994 -39.25 78.8125 C-37.71736005 75.33814904 -36.17934575 71.86619265 -34.640625 68.39453125 C-34.26067886 67.53454529 -33.88073273 66.67455933 -33.48927307 65.78851318 C-30.4675445 58.97630103 -27.3137344 52.23288111 -24.07562256 45.52095032 C-19.93779946 36.90651276 -16.19346939 28.06239325 -12.94140625 19.07421875 C-12 17 -12 17 -9.875 16.1875 C-9.25625 16.125625 -8.6375 16.06375 -8 16 C-7.896875 15.13375 -7.79375 14.2675 -7.6875 13.375 C-6.53264442 7.70570898 -4.29748826 3.85292051 0 0 Z " fill="#A523E4" transform="translate(257,195)"/>
<path d="M0 0 C1.82299805 0.15649414 1.82299805 0.15649414 4 1 C5.47973633 3.37670898 5.47973633 3.37670898 6.83203125 6.49609375 C7.31994141 7.61177734 7.80785156 8.72746094 8.31054688 9.87695312 C8.80619141 11.05193359 9.30183594 12.22691406 9.8125 13.4375 C10.32748047 14.60861328 10.84246094 15.77972656 11.37304688 16.98632812 C14.13068691 23.38390533 14.13068691 23.38390533 15 26 C14.67 26.66 14.34 27.32 14 28 C12.68 26.02 11.36 24.04 10 22 C9.34 22.66 8.68 23.32 8 24 C6.23937836 20.67438135 5.89215772 19.40826005 6.875 15.6875 C7.24625 14.800625 7.6175 13.91375 8 13 C5.83125748 13.50603992 4.00032373 13.99983813 2 15 C1.73632386 17.38351471 1.73632386 17.38351471 1.71484375 20.25390625 C1.21821253 27.59252912 -1.3142509 33.35367503 -4.4375 39.9375 C-5.43644069 42.1131698 -6.43514752 44.28894699 -7.43359375 46.46484375 C-7.87759521 47.409646 -8.32159668 48.35444824 -8.77905273 49.32788086 C-9.93525565 51.85830295 -10.98981897 54.40830845 -12 57 C-14 54 -14 54 -14 52 C-13.34 52 -12.68 52 -12 52 C-12.66 50.35 -13.32 48.7 -14 47 C-13.34 46.34 -12.68 45.68 -12 45 C-12 45.66 -12 46.32 -12 47 C-11.34 47 -10.68 47 -10 47 C-10.33 45.68 -10.66 44.36 -11 43 C-13.21081851 42.89459074 -13.21081851 42.89459074 -16 44 C-16.98940061 45.99519636 -16.98940061 45.99519636 -17.625 48.375 C-17.86476562 49.16648438 -18.10453125 49.95796875 -18.3515625 50.7734375 C-18.56554687 51.50820312 -18.77953125 52.24296875 -19 53 C-19.33 53.99 -19.66 54.98 -20 56 C-21.485 56.495 -21.485 56.495 -23 57 C-21.49588497 52.17129643 -19.57653514 47.65635478 -17.48046875 43.06640625 C-16.78034651 41.51378569 -16.08048545 39.96104733 -15.38085938 38.40820312 C-14.29139635 35.99834108 -13.1998081 33.58951353 -12.10327148 31.18286133 C-7.44315481 20.93992699 -3.30116669 10.76754369 0 0 Z " fill="#A023DF" transform="translate(269,155)"/>
<path d="M0 0 C3.16890978 2.30466166 5.73514578 4.77203743 8.25 7.75 C15.5517409 16.22128381 23.122939 23.23949459 34.5625 24.75 C35.696875 24.8325 36.83125 24.915 38 25 C38 25.99 38 26.98 38 28 C22.05109469 28.69791224 9.59917533 28.54475272 -3.609375 18.52734375 C-5.36660363 16.59735388 -5.82374118 15.61605191 -6 13 C-5.0390625 10.01953125 -5.0390625 10.01953125 -3.625 6.8125 C-3.16351563 5.74644531 -2.70203125 4.68039063 -2.2265625 3.58203125 C-1 1 -1 1 0 0 Z " fill="#FAF9FA" transform="translate(244,241)"/>
<path d="M0 0 C2.475 0.495 2.475 0.495 5 1 C4.67 2.98 4.34 4.96 4 7 C4.66 5.68 5.32 4.36 6 3 C6.66 3 7.32 3 8 3 C8.09765625 4.92057292 8.1953125 6.84114583 8.29296875 8.76171875 C9.07834915 11.84714688 9.07834915 11.84714688 14 16 C4.1 16 -5.8 16 -16 16 C-16 15.34 -16 14.68 -16 14 C-14.35 13.67 -12.7 13.34 -11 13 C-10.89300781 12.41734375 -10.78601563 11.8346875 -10.67578125 11.234375 C-9.90917822 8.69971065 -8.8894248 7.26645773 -7.1875 5.25 C-6.68605469 4.63640625 -6.18460938 4.0228125 -5.66796875 3.390625 C-4 2 -4 2 0 2 C0 1.34 0 0.68 0 0 Z " fill="#A91FEB" transform="translate(213,291)"/>
<path d="M0 0 C1.16161779 2.86578759 0.9946154 4.01630163 0.00390625 7.015625 C-0.47175781 8.08296875 -0.94742188 9.1503125 -1.4375 10.25 C-1.91058594 11.32765625 -2.38367188 12.4053125 -2.87109375 13.515625 C-3.24363281 14.33546875 -3.61617187 15.1553125 -4 16 C-3.01 16.33 -2.02 16.66 -1 17 C-1 17.99 -1 18.98 -1 20 C0.32 20 1.64 20 3 20 C3.33 18.02 3.66 16.04 4 14 C4.66 14 5.32 14 6 14 C6.33 13.01 6.66 12.02 7 11 C8 13 8 13 7.15234375 15.609375 C6.3456108 17.6949483 5.53314986 19.77831538 4.71484375 21.859375 C3.84903292 25.6632652 4.32970234 27.50982578 6 31 C8.91765 32.9451 10.62537285 33.45276317 14 34 C14 34.99 14 35.98 14 37 C-0.52 37 -15.04 37 -30 37 C-30 36.01 -30 35.02 -30 34 C-29.09507812 33.80083984 -29.09507812 33.80083984 -28.171875 33.59765625 C-27.37265625 33.42105469 -26.5734375 33.24445313 -25.75 33.0625 C-24.96109375 32.88847656 -24.1721875 32.71445312 -23.359375 32.53515625 C-21.23121297 32.052444 -19.11467158 31.53836822 -17 31 C-17 31.66 -17 32.32 -17 33 C-19.475 33.495 -19.475 33.495 -22 34 C-22 34.66 -22 35.32 -22 36 C-12.43 35.67 -2.86 35.34 7 35 C4.525 33.02 4.525 33.02 2 31 C1.35483658 28.17160356 1.75522454 25.93730557 2 23 C0.02 25.97 0.02 25.97 -2 29 C-2.98120464 25.94736336 -2.98120464 24.05263664 -2 21 C-3.32 20.67 -4.64 20.34 -6 20 C-6 20.66 -6 21.32 -6 22 C-6.99 22 -7.98 22 -9 22 C-6.66062389 14.33204498 -3.45231194 7.22862726 0 0 Z " fill="#A620E5" transform="translate(219,271)"/>
<path d="M0 0 C0.61875 0.495 1.2375 0.99 1.875 1.5 C3.83880904 3.19222773 3.83880904 3.19222773 6 3 C5 6 5 6 2 8 C2 9.04285156 2 10.08570313 2 11.16015625 C2 15.50460296 0.80821157 18.5889416 -1 22.4375 C-1.28617188 23.07365234 -1.57234375 23.70980469 -1.8671875 24.36523438 C-2.56652845 25.91544015 -3.28163857 27.45851611 -4 29 C-4.99 28.67 -5.98 28.34 -7 28 C-7.33 27.01 -7.66 26.02 -8 25 C-8.33 25.66 -8.66 26.32 -9 27 C-9.66 27 -10.32 27 -11 27 C-11.49180328 19.62295082 -11.49180328 19.62295082 -9.125 16.625 C-8.42375 16.08875 -7.7225 15.5525 -7 15 C-6.34 14.34 -5.68 13.68 -5 13 C-4.01 13.99 -3.02 14.98 -2 16 C-1.3185177 14.10820797 -1.3185177 14.10820797 -1 12 C-1.66 11.34 -2.32 10.68 -3 10 C-3 8.68 -3 7.36 -3 6 C-2.34 5.67 -1.68 5.34 -1 5 C-0.34444881 2.47266765 -0.34444881 2.47266765 0 0 Z M-2 8 C-1 10 -1 10 -1 10 Z " fill="#AD1DF0" transform="translate(239,231)"/>
<path d="M0 0 C0.33 0 0.66 0 1 0 C1.125 6.75 1.125 6.75 0 9 C1.9254644 11.2236068 1.9254644 11.2236068 5 12 C4.34496718 16.05819183 3.05440879 19.53971282 1.4375 23.3125 C0.98246094 24.38113281 0.52742188 25.44976562 0.05859375 26.55078125 C-0.29074219 27.35902344 -0.64007813 28.16726562 -1 29 C-3 26 -3 26 -3 24 C-2.34 24 -1.68 24 -1 24 C-1.66 22.35 -2.32 20.7 -3 19 C-2.34 18.34 -1.68 17.68 -1 17 C-1 17.66 -1 18.32 -1 19 C-0.34 19 0.32 19 1 19 C0.67 17.68 0.34 16.36 0 15 C-2.21081851 14.89459074 -2.21081851 14.89459074 -5 16 C-5.98940061 17.99519636 -5.98940061 17.99519636 -6.625 20.375 C-6.86476562 21.16648438 -7.10453125 21.95796875 -7.3515625 22.7734375 C-7.56554687 23.50820312 -7.77953125 24.24296875 -8 25 C-8.33 25.99 -8.66 26.98 -9 28 C-9.99 28.33 -10.98 28.66 -12 29 C-10.72372656 25.02766298 -9.29152356 21.20373325 -7.6171875 17.3828125 C-7.17246094 16.36445313 -6.72773438 15.34609375 -6.26953125 14.296875 C-5.80933594 13.25015625 -5.34914062 12.2034375 -4.875 11.125 C-4.40707031 10.05507812 -3.93914062 8.98515625 -3.45703125 7.8828125 C-2.30700558 5.2541824 -1.15459551 2.62662527 0 0 Z " fill="#9C25D6" transform="translate(258,183)"/>
<path d="M0 0 C0 0.66 0 1.32 0 2 C-0.66 2 -1.32 2 -2 2 C-1.95875 2.928125 -1.9175 3.85625 -1.875 4.8125 C-2 8 -2 8 -4 11 C-4.66 11 -5.32 11 -6 11 C-6.33 12.98 -6.66 14.96 -7 17 C-8.32 17 -9.64 17 -11 17 C-11 16.01 -11 15.02 -11 14 C-12.32 13.67 -13.64 13.34 -15 13 C-14.01 10.69 -13.02 8.38 -12 6 C-11.34 6 -10.68 6 -10 6 C-10 5.34 -10 4.68 -10 4 C-6.68165449 0.77646436 -4.65842688 -0.53239164 0 0 Z " fill="#AD1CF1" transform="translate(229,274)"/>
<path d="M0 0 C1.5625 1.8125 1.5625 1.8125 3 4 C2.67 4.99 2.34 5.98 2 7 C1.01 7.33 0.02 7.66 -1 8 C-0.67 9.32 -0.34 10.64 0 12 C-0.66 12 -1.32 12 -2 12 C-1.67 13.65 -1.34 15.3 -1 17 C-1.99 17.33 -2.98 17.66 -4 18 C-4.33 18.99 -4.66 19.98 -5 21 C-5.33 20.67 -5.66 20.34 -6 20 C-6.99 22.475 -6.99 22.475 -8 25 C-9.4606285 22.35261084 -10 21.10551666 -10 18 C-9.34 17.67 -8.68 17.34 -8 17 C-7.38440128 15.01492023 -7.38440128 15.01492023 -7 12.6875 C-5.96202642 7.08058914 -4.1878322 3.90864339 0 0 Z " fill="#AD1CF2" transform="translate(257,195)"/>
<path d="M0 0 C0.33 0.99 0.66 1.98 1 3 C-0.32 4.65 -1.64 6.3 -3 8 C7.23 8 17.46 8 28 8 C27.34 6.68 26.68 5.36 26 4 C27.051875 4.33 28.10375 4.66 29.1875 5 C32.38873357 5.83966782 34.7411008 6.19750904 38 6 C38.495 7.98 38.495 7.98 39 10 C22.83 10 6.66 10 -10 10 C-10 9.01 -10 8.02 -10 7 C-8.906875 6.773125 -7.81375 6.54625 -6.6875 6.3125 C-2.87511789 5.34252805 -2.87511789 5.34252805 -1.0625 2.375 C-0.711875 1.59125 -0.36125 0.8075 0 0 Z " fill="#8328B4" transform="translate(314,298)"/>
<path d="M0 0 C1.65 0 3.3 0 5 0 C4.01 0.495 4.01 0.495 3 1 C2.56896902 3.51948641 2.56896902 3.51948641 2.4375 6.4375 C2.0941704 11.81165919 2.0941704 11.81165919 1 14 C0.960008 15.99960012 0.95653201 18.00047242 1 20 C-1.375 19.75 -1.375 19.75 -4 19 C-5.3125 16.9375 -5.3125 16.9375 -6 15 C-5.67 14.67 -5.34 14.34 -5 14 C-4.63239269 11.67182036 -4.29758419 9.3381615 -4 7 C-3.34 7 -2.68 7 -2 7 C-1.67 6.34 -1.34 5.68 -1 5 C-0.67 5 -0.34 5 0 5 C0 3.35 0 1.7 0 0 Z " fill="#AE1CEF" transform="translate(263,176)"/>
<path d="M0 0 C1.485 0.99 1.485 0.99 3 2 C3.1875 4.625 3.1875 4.625 3 7 C3.66 7 4.32 7 5 7 C5.47985967 8.27057182 5.9588593 9.54146848 6.4375 10.8125 C6.83775391 11.87404297 6.83775391 11.87404297 7.24609375 12.95703125 C8.94710205 17.56649934 8.74461133 19.38191119 7 24 C7.66 24.33 8.32 24.66 9 25 C6.03 25 3.06 25 0 25 C0.680625 24.195625 1.36125 23.39125 2.0625 22.5625 C4.42002696 19.01784953 4.22706876 16.35119038 3.5625 12.24609375 C2.73927016 8.95889128 1.41511601 6.07633916 0 3 C0 2.01 0 1.02 0 0 Z " fill="#A71FEC" transform="translate(310,282)"/>
<path d="M0 0 C0 0.66 0 1.32 0 2 C-1.65 2.33 -3.3 2.66 -5 3 C-5 3.66 -5 4.32 -5 5 C6.55 5 18.1 5 30 5 C30.33 4.34 30.66 3.68 31 3 C31 3.99 31 4.98 31 6 C16.48 6 1.96 6 -13 6 C-13 5.01 -13 4.02 -13 3 C-12.37351563 2.86722656 -11.74703125 2.73445313 -11.1015625 2.59765625 C-10.28429687 2.42105469 -9.46703125 2.24445313 -8.625 2.0625 C-7.81289062 1.88847656 -7.00078125 1.71445312 -6.1640625 1.53515625 C-3.88723554 0.9721142 -2.3530537 0 0 0 Z " fill="#8028B1" transform="translate(202,302)"/>
<path d="M0 0 C0.66 0 1.32 0 2 0 C2.33 1.98 2.66 3.96 3 6 C3.66 6 4.32 6 5 6 C5 7.65 5 9.3 5 11 C5.66 11 6.32 11 7 11 C8.31626692 14.61973402 9 17.09567131 9 21 C9.66 21 10.32 21 11 21 C11 22.98 11 24.96 11 27 C11.66 27 12.32 27 13 27 C13 28.32 13 29.64 13 31 C13.66 31 14.32 31 15 31 C15 32.98 15 34.96 15 37 C12.14948873 33.63347066 10.62869673 29.97589834 9.08203125 25.8984375 C8.68886971 24.88192612 8.68886971 24.88192612 8.2877655 23.84487915 C7.73774705 22.41890082 7.19078986 20.99173836 6.64672852 19.56347656 C5.81162963 17.3727167 4.96618199 15.18616641 4.11914062 13 C3.58532539 11.61221446 3.05210145 10.22420131 2.51953125 8.8359375 C2.26645706 8.18072113 2.01338287 7.52550476 1.75263977 6.85043335 C0 2.23192192 0 2.23192192 0 0 Z " fill="#9827CA" transform="translate(278,202)"/>
<path d="M0 0 C3.34687441 4.20208073 5.19197591 8.70044234 7.25 13.625 C7.81460937 14.93210938 7.81460937 14.93210938 8.390625 16.265625 C8.74125 17.09835938 9.091875 17.93109375 9.453125 18.7890625 C9.77442383 19.54912598 10.09572266 20.30918945 10.42675781 21.09228516 C11 23 11 23 10 25 C8.68 23.02 7.36 21.04 6 19 C5.34 19.66 4.68 20.32 4 21 C2.23937836 17.67438135 1.89215772 16.40826005 2.875 12.6875 C3.24625 11.800625 3.6175 10.91375 4 10 C3.34 10 2.68 10 2 10 C0.39644899 6.49223216 -0.22036864 3.85645121 0 0 Z " fill="#9D22D5" transform="translate(273,158)"/>
<path d="M0 0 C0 1.98 0 3.96 0 6 C0.99 5.67 1.98 5.34 3 5 C2.67 6.98 2.34 8.96 2 11 C2.66 11 3.32 11 4 11 C4 10.34 4 9.68 4 9 C4.66 9 5.32 9 6 9 C6 10.65 6 12.3 6 14 C5.34 14 4.68 14 4 14 C4.33 16.31 4.66 18.62 5 21 C2.28500494 18.28500494 1.2555205 15.0732495 -0.125 11.5625 C-0.40214844 10.88123047 -0.67929687 10.19996094 -0.96484375 9.49804688 C-2.14842926 6.52159169 -3 4.23200972 -3 1 C-1 0 -1 0 0 0 Z " fill="#9F23D9" transform="translate(305,261)"/>
<path d="M0 0 C1.67588141 2.51382212 2.94030311 4.82947288 4.1875 7.5625 C4.55230469 8.34753906 4.91710937 9.13257813 5.29296875 9.94140625 C5.52628906 10.62074219 5.75960938 11.30007813 6 12 C5.67 12.66 5.34 13.32 5 14 C4.4225 13.525625 3.845 13.05125 3.25 12.5625 C1.07417916 11.0515133 -0.42602448 10.45963849 -3 10 C-3 8.35 -3 6.7 -3 5 C-2.01 5.495 -2.01 5.495 -1 6 C-0.67 4.02 -0.34 2.04 0 0 Z " fill="#9D22D8" transform="translate(325,276)"/>
<path d="M0 0 C1.85610526 2.7841579 3.26903445 5.47610783 4.6875 8.5 C5.14511719 9.4590625 5.60273438 10.418125 6.07421875 11.40625 C7 14 7 14 6 17 C5.34 16.67 4.68 16.34 4 16 C3.67 16.66 3.34 17.32 3 18 C2.34 17.67 1.68 17.34 1 17 C1.20625 16.154375 1.4125 15.30875 1.625 14.4375 C2.06088205 10.44191456 1.19770139 7.80446324 0 4 C0 2.68 0 1.36 0 0 Z " fill="#9A24D3" transform="translate(297,212)"/>
<path d="M0 0 C0.66 0 1.32 0 2 0 C1.938125 0.886875 1.87625 1.77375 1.8125 2.6875 C2.02683318 6.47405278 2.58075303 8.09690364 5 11 C8.07561246 12.35980881 8.07561246 12.35980881 11 13 C11 13.66 11 14.32 11 15 C7.37959703 15.5324122 5.92755227 14.95899185 2.6875 13.125 C0.54593841 11.23538683 0.04508414 10.30443414 -0.37890625 7.44140625 C-0.37534959 4.93396095 -0.26139754 2.49295797 0 0 Z " fill="#9829CD" transform="translate(221,292)"/>
<path d="M0 0 C2.59583531 3.16081123 4.17645154 6.35773987 5.75 10.125 C6.42289062 11.70667969 6.42289062 11.70667969 7.109375 13.3203125 C8 16 8 16 7 18 C4 13.25 4 13.25 4 11 C3.34 11 2.68 11 2 11 C0.80712589 7.12315913 0 4.08378077 0 0 Z " fill="#9227C7" transform="translate(312,247)"/>
<path d="M0 0 C1.21386936 3.64160808 0.6674695 4.33165469 -0.9375 7.6875 C-1.31777344 8.49574219 -1.69804687 9.30398437 -2.08984375 10.13671875 C-2.39019531 10.75160156 -2.69054687 11.36648437 -3 12 C-3.33 12 -3.66 12 -4 12 C-4 10.35 -4 8.7 -4 7 C-4.66 6.67 -5.32 6.34 -6 6 C-5.34 4.68 -4.68 3.36 -4 2 C-3.67 2.33 -3.34 2.66 -3 3 C-2.01 2.01 -1.02 1.02 0 0 Z " fill="#9B27D4" transform="translate(255,212)"/>
<path d="M0 0 C1.16161779 2.86578759 0.9946154 4.01630163 0.00390625 7.015625 C-0.70958984 8.61664063 -0.70958984 8.61664063 -1.4375 10.25 C-1.91058594 11.32765625 -2.38367188 12.4053125 -2.87109375 13.515625 C-3.24363281 14.33546875 -3.61617187 15.1553125 -4 16 C-4.66 16 -5.32 16 -6 16 C-6.33 16.66 -6.66 17.32 -7 18 C-6.35534798 13.66695924 -4.81074878 10.13327935 -2.9375 6.1875 C-2.11572266 4.44533203 -2.11572266 4.44533203 -1.27734375 2.66796875 C-0.85582031 1.78753906 -0.43429688 0.90710938 0 0 Z " fill="#952CCA" transform="translate(219,271)"/>
<path d="M0 0 C0.33 0 0.66 0 1 0 C0.67 3.63 0.34 7.26 0 11 C-1.65 11.66 -3.3 12.32 -5 13 C-4.54554036 11.58208592 -4.08625056 10.16571954 -3.625 8.75 C-3.24214844 7.56664062 -3.24214844 7.56664062 -2.8515625 6.359375 C-2.04826333 4.13372042 -1.10288338 2.09068328 0 0 Z " fill="#9A2AD0" transform="translate(228,251)"/>
<path d="M0 0 C2 3.75 2 3.75 2 6 C1.34 6 0.68 6 0 6 C-0.4640625 7.3921875 -0.4640625 7.3921875 -0.9375 8.8125 C-1.625 10.875 -2.3125 12.9375 -3 15 C-3.66 14.34 -4.32 13.68 -5 13 C-3.125 6.25 -3.125 6.25 -2 4 C-1.34 4 -0.68 4 0 4 C0 2.68 0 1.36 0 0 Z " fill="#AF1BEF" transform="translate(274,164)"/>
<path d="M0 0 C1.5778125 0.495 1.5778125 0.495 3.1875 1 C6.38873357 1.83966782 8.7411008 2.19750904 12 2 C11.67 2.99 11.34 3.98 11 5 C8.03 5 5.06 5 2 5 C1.34 3.35 0.68 1.7 0 0 Z " fill="#8C2CCF" transform="translate(340,302)"/>
<path d="M0 0 C1.485 0.99 1.485 0.99 3 2 C3.1875 4.625 3.1875 4.625 3 7 C3.66 7 4.32 7 5 7 C5.33 9.97 5.66 12.94 6 16 C4.2133211 13.31998165 3.0677863 10.96871256 1.875 8 C1.52179688 7.13375 1.16859375 6.2675 0.8046875 5.375 C0 3 0 3 0 0 Z " fill="#932CC4" transform="translate(310,282)"/>
<path d="M0 0 C1.35304209 4.05912626 0.15216503 5.77149591 -1.4375 9.6875 C-1.91058594 10.86699219 -2.38367188 12.04648437 -2.87109375 13.26171875 C-3.24363281 14.16535156 -3.61617187 15.06898438 -4 16 C-4.66 14.68 -5.32 13.36 -6 12 C-5.34 11.67 -4.68 11.34 -4 11 C-3.64270064 9.67288808 -3.31674575 8.33737094 -3 7 C-2.05751254 4.63871422 -1.02873939 2.32584557 0 0 Z " fill="#9B31CC" transform="translate(239,249)"/>
<path d="M0 0 C3.42931954 3.7559214 4.56429083 8.23466745 6 13 C3 12 3 12 1 9 C0.5859375 6.73828125 0.5859375 6.73828125 0.375 4.3125 C0.30023438 3.50425781 0.22546875 2.69601563 0.1484375 1.86328125 C0.09945313 1.24839844 0.05046875 0.63351563 0 0 Z " fill="#9426C9" transform="translate(291,199)"/>
<path d="M0 0 C0.33 3.63 0.66 7.26 1 11 C-1.2551922 8.7448078 -1.97723468 6.9952413 -3 4 C-3 3.01 -3 2.02 -3 1 C-1 0 -1 0 0 0 Z " fill="#9729C7" transform="translate(305,261)"/>
<path d="M0 0 C1.32 1.32 2.64 2.64 4 4 C-0.75 6.875 -0.75 6.875 -3 8 C-1.125 1.125 -1.125 1.125 0 0 Z " fill="#F8E0FB" transform="translate(244,241)"/>
<path d="M0 0 C0.33 0 0.66 0 1 0 C1.3125 3.25 1.3125 3.25 1 7 C-1.5 9.4375 -1.5 9.4375 -4 11 C-2.7874262 7.27566618 -1.49140021 3.62197194 0 0 Z " fill="#942EC8" transform="translate(258,183)"/>
<path d="M0 0 C2.31 0 4.62 0 7 0 C7.33 0.99 7.66 1.98 8 3 C5.69 3 3.38 3 1 3 C0.67 2.01 0.34 1.02 0 0 Z " fill="#F7F7F7" transform="translate(187,266)"/>
<path d="M0 0 C0.99 0 1.98 0 3 0 C3 1.32 3 2.64 3 4 C3.66 4 4.32 4 5 4 C5 5.98 5 7.96 5 10 C2.35534962 6.8745041 1.15585285 3.91211733 0 0 Z " fill="#8723D1" transform="translate(288,229)"/>
<path d="M0 0 C0.33 0 0.66 0 1 0 C1.33 2.64 1.66 5.28 2 8 C0.35 8.33 -1.3 8.66 -3 9 C-2.01 6.03 -1.02 3.06 0 0 Z " fill="#9929CE" transform="translate(262,174)"/>
<path d="M0 0 C2.96052484 3.36423277 3.92289822 6.69159287 5 11 C2 10 2 10 0.8125 7.75 C0.00061706 5.00208853 -0.16260121 2.84552111 0 0 Z " fill="#942DC8" transform="translate(273,158)"/>
<path d="M0 0 C2.64 0.99 5.28 1.98 8 3 C8 3.66 8 4.32 8 5 C3.48279689 5.36625971 3.48279689 5.36625971 1.1875 3.625 C0 2 0 2 0 0 Z " fill="#8C2CC3" transform="translate(224,302)"/>
<path d="M0 0 C1 2 1 2 0.44140625 3.9453125 C0.15136719 4.66460937 -0.13867188 5.38390625 -0.4375 6.125 C-0.72496094 6.84945313 -1.01242188 7.57390625 -1.30859375 8.3203125 C-1.53675781 8.87460937 -1.76492187 9.42890625 -2 10 C-2.33 10 -2.66 10 -3 10 C-3 7.69 -3 5.38 -3 3 C-2.34 3 -1.68 3 -1 3 C-0.67 2.01 -0.34 1.02 0 0 Z " fill="#912BC1" transform="translate(226,282)"/>
<path d="" fill="#000000" transform="translate(0,0)"/>
<path d="" fill="#000000" transform="translate(0,0)"/>
<path d="" fill="#000000" transform="translate(0,0)"/>
<path d="" fill="#000000" transform="translate(0,0)"/>
<path d="" fill="#000000" transform="translate(0,0)"/>
<path d="" fill="#000000" transform="translate(0,0)"/>
<path d="" fill="#000000" transform="translate(0,0)"/>
<path d="" fill="#000000" transform="translate(0,0)"/>
<path d="" fill="#000000" transform="translate(0,0)"/>
<path d="" fill="#000000" transform="translate(0,0)"/>
<path d="" fill="#000000" transform="translate(0,0)"/>
<path d="" fill="#000000" transform="translate(0,0)"/>
<path d="" fill="#000000" transform="translate(0,0)"/>
<path d="" fill="#000000" transform="translate(0,0)"/>
<path d="" fill="#000000" transform="translate(0,0)"/>
<path d="" fill="#000000" transform="translate(0,0)"/>
<path d="" fill="#000000" transform="translate(0,0)"/>
<path d="" fill="#000000" transform="translate(0,0)"/>
<path d="" fill="#000000" transform="translate(0,0)"/>
<path d="" fill="#000000" transform="translate(0,0)"/>
<path d="" fill="#000000" transform="translate(0,0)"/>
<path d="" fill="#000000" transform="translate(0,0)"/>
<path d="" fill="#000000" transform="translate(0,0)"/>
<path d="" fill="#000000" transform="translate(0,0)"/>
<path d="" fill="#000000" transform="translate(0,0)"/>
<path d="" fill="#000000" transform="translate(0,0)"/>
<path d="" fill="#000000" transform="translate(0,0)"/>
<path d="" fill="#000000" transform="translate(0,0)"/>
<path d="" fill="#000000" transform="translate(0,0)"/>
<path d="" fill="#000000" transform="translate(0,0)"/>
<path d="" fill="#000000" transform="translate(0,0)"/>
<path d="" fill="#000000" transform="translate(0,0)"/>
<path d="" fill="#000000" transform="translate(0,0)"/>
<path d="" fill="#000000" transform="translate(0,0)"/>
<path d="" fill="#000000" transform="translate(0,0)"/>
<path d="" fill="#000000" transform="translate(0,0)"/>
<path d="" fill="#000000" transform="translate(0,0)"/>
<path d="" fill="#000000" transform="translate(0,0)"/>
<path d="" fill="#000000" transform="translate(0,0)"/>
<path d="" fill="#000000" transform="translate(0,0)"/>
<path d="" fill="#000000" transform="translate(0,0)"/>
<path d="" fill="#000000" transform="translate(0,0)"/>
<path d="" fill="#000000" transform="translate(0,0)"/>
<path d="" fill="#000000" transform="translate(0,0)"/>
<path d="" fill="#000000" transform="translate(0,0)"/>
<path d="" fill="#000000" transform="translate(0,0)"/>
<path d="" fill="#000000" transform="translate(0,0)"/>
<path d="" fill="#000000" transform="translate(0,0)"/>
<path d="" fill="#000000" transform="translate(0,0)"/>
<path d="" fill="#000000" transform="translate(0,0)"/>
<path d="" fill="#000000" transform="translate(0,0)"/>
<path d="" fill="#000000" transform="translate(0,0)"/>
<path d="" fill="#000000" transform="translate(0,0)"/>
<path d="" fill="#000000" transform="translate(0,0)"/>
<path d="" fill="#000000" transform="translate(0,0)"/>
<path d="" fill="#000000" transform="translate(0,0)"/>
<path d="" fill="#000000" transform="translate(0,0)"/>
<path d="" fill="#000000" transform="translate(0,0)"/>
<path d="" fill="#000000" transform="translate(0,0)"/>
<path d="" fill="#000000" transform="translate(0,0)"/>
<path d="" fill="#000000" transform="translate(0,0)"/>
<path d="" fill="#000000" transform="translate(0,0)"/>
<path d="" fill="#000000" transform="translate(0,0)"/>
<path d="" fill="#000000" transform="translate(0,0)"/>
<path d="" fill="#000000" transform="translate(0,0)"/>
<path d="" fill="#000000" transform="translate(0,0)"/>
<path d="" fill="#000000" transform="translate(0,0)"/>
<path d="" fill="#000000" transform="translate(0,0)"/>
<path d="" fill="#000000" transform="translate(0,0)"/>
<path d="" fill="#000000" transform="translate(0,0)"/>
<path d="" fill="#000000" transform="translate(0,0)"/>
<path d="" fill="#000000" transform="translate(0,0)"/>
<path d="" fill="#000000" transform="translate(0,0)"/>
<path d="" fill="#000000" transform="translate(0,0)"/>
<path d="" fill="#000000" transform="translate(0,0)"/>
<path d="" fill="#000000" transform="translate(0,0)"/>
<path d="" fill="#000000" transform="translate(0,0)"/>
<path d="" fill="#000000" transform="translate(0,0)"/>
<path d="" fill="#000000" transform="translate(0,0)"/>
<path d="" fill="#000000" transform="translate(0,0)"/>
<path d="" fill="#000000" transform="translate(0,0)"/>
<path d="" fill="#000000" transform="translate(0,0)"/>
<path d="" fill="#000000" transform="translate(0,0)"/>
<path d="" fill="#000000" transform="translate(0,0)"/>
<path d="" fill="#000000" transform="translate(0,0)"/>
<path d="" fill="#000000" transform="translate(0,0)"/>
<path d="" fill="#000000" transform="translate(0,0)"/>
<path d="" fill="#000000" transform="translate(0,0)"/>
<path d="" fill="#000000" transform="translate(0,0)"/>
<path d="" fill="#000000" transform="translate(0,0)"/>
<path d="" fill="#000000" transform="translate(0,0)"/>
</svg>
